<svg xmlns="http://www.w3.org/2000/svg" version="1.1" xmlns:xlink="http://www.w3.org/1999/xlink" xmlns:svgjs="http://svgjs.dev/svgjs" width="1440" height="900" preserveAspectRatio="none" viewBox="0 0 1440 900"><g mask="url(&quot;#SvgjsMask1867&quot;)" fill="none"><rect width="1440" height="900" x="0" y="0" fill="url(&quot;#SvgjsLinearGradient1868&quot;)"></rect><path d="M18 900L918 0L1536 0L636 900z" fill="url(&quot;#SvgjsLinearGradient1869&quot;)"></path><path d="M505.20000000000005 900L1405.2 0L1867.2 0L967.2 900z" fill="url(&quot;#SvgjsLinearGradient1869&quot;)"></path><path d="M1365 900L465 0L-163.5 0L736.5 900z" fill="url(&quot;#SvgjsLinearGradient1870&quot;)"></path><path d="M892.8 900L-7.2000000000000455 0L-127.20000000000005 0L772.8 900z" fill="url(&quot;#SvgjsLinearGradient1870&quot;)"></path><path d="M781.7868275941341 900L1440 241.78682759413414L1440 900z" fill="url(&quot;#SvgjsLinearGradient1869&quot;)"></path><path d="M0 900L658.2131724058659 900L 0 241.78682759413414z" fill="url(&quot;#SvgjsLinearGradient1870&quot;)"></path></g><defs><mask id="SvgjsMask1867"><rect width="1440" height="900" fill="#ffffff"></rect></mask><linearGradient x1="9.37%" y1="-15%" x2="90.63%" y2="115%" gradientUnits="userSpaceOnUse" id="SvgjsLinearGradient1868"><stop stop-color="#0e2a47" offset="0"></stop><stop stop-color="rgba(0, 0, 0, 1)" offset="1"></stop></linearGradient><linearGradient x1="0%" y1="100%" x2="100%" y2="0%" id="SvgjsLinearGradient1869"><stop stop-color="rgba(15, 70, 185, 0.2)" offset="0"></stop><stop stop-opacity="0" stop-color="rgba(15, 70, 185, 0.2)" offset="0.66"></stop></linearGradient><linearGradient x1="100%" y1="100%" x2="0%" y2="0%" id="SvgjsLinearGradient1870"><stop stop-color="rgba(15, 70, 185, 0.2)" offset="0"></stop><stop stop-opacity="0" stop-color="rgba(15, 70, 185, 0.2)" offset="0.66"></stop></linearGradient></defs></svg>